<svg xmlns="http://www.w3.org/2000/svg" viewBox="0 0 900.83 1851.63"><defs><style>.cls-1{opacity:0.5;}.cls-2{fill:#3955f5;opacity:0.05;}.cls-3{fill:#7e98ed;}.cls-4{fill:#8ea7ed;}.cls-5{fill:#b9ccef;}.cls-6{fill:#aac1f2;}.cls-7{fill:#c7d7f2;}.cls-8{fill:#d7e3f4;}.cls-9{fill:#d7e2f4;}.cls-10{fill:#d7f4e7;}.cls-11{fill:#a2f2d2;}.cls-12{fill:#e6ecf4;}</style></defs><title>background</title><g id="Layer_2" data-name="Layer 2"><g id="Layer_1-2" data-name="Layer 1"><g class="cls-1"><path class="cls-2" d="M767.29,44.1a102.29,102.29,0,0,0-102.13,96.65H646.52l-1.32,0a54,54,0,0,0-.07,108H767.29a102.29,102.29,0,0,0,0-204.57Z"/><polygon class="cls-3" points="900.83 595.91 577.56 57.62 223.33 647.47 577.56 647.47 900.83 647.47 900.83 595.91"/><polygon class="cls-4" points="204.97 237.41 0 578.72 0 647.47 204.97 647.47 451.24 647.47 204.97 237.41"/><polygon class="cls-5" points="322.28 331.07 79.29 735.68 322.28 735.68 565.26 735.68 322.28 331.07"/><polygon class="cls-6" points="900.83 506.61 789.88 321.86 510.96 786.3 789.88 786.3 900.83 786.3 900.83 506.61"/><polygon class="cls-7" points="565.13 496.44 377.22 809.34 565.13 809.34 753.04 809.34 565.13 496.44"/><polygon class="cls-8" points="411.71 621.83 250.07 890.98 411.71 890.98 573.34 890.98 411.71 621.83"/><path class="cls-2" d="M238.72,68.26A72,72,0,1,0,166.79,144a72.74,72.74,0,0,0,8.13-.47h53.71a38,38,0,1,0,10.09-75.31Z"/><circle class="cls-9" cx="440.32" cy="419.97" r="38.52"/><circle class="cls-9" cx="402.98" cy="429.58" r="29.28"/><rect class="cls-9" x="371.08" y="417.85" width="69.18" height="40.64" transform="translate(811.33 876.33) rotate(-180)"/><circle class="cls-9" cx="370.87" cy="438.37" r="20.49"/><polygon class="cls-10" points="322.33 1557.22 276.9 1481.57 300.72 1481.57 260.15 1414.02 282.93 1414.02 223.75 1315.46 164.56 1414.02 187.34 1414.02 146.77 1481.57 170.59 1481.57 125.16 1557.22 212.4 1557.22 212.4 1603.83 234.48 1603.83 234.48 1557.22 322.33 1557.22"/><polygon class="cls-10" points="130.54 1347.77 130.54 1314.47 193.3 1314.47 160.85 1260.42 177.86 1260.42 148.88 1212.16 165.16 1212.16 122.87 1141.75 80.59 1212.16 96.86 1212.16 67.88 1260.42 84.9 1260.42 52.44 1314.47 114.77 1314.47 114.77 1347.77 130.54 1347.77"/><polygon class="cls-11" points="172.62 1672.22 207.57 1672.22 148.04 1573.09 181.47 1573.09 94.62 1428.47 7.77 1573.09 41.2 1573.09 0 1641.7 0 1672.22 16.62 1672.22 0 1699.9 0 1783.22 77.97 1783.22 77.97 1851.63 110.37 1851.63 110.37 1783.22 239.28 1783.22 172.62 1672.22"/><path class="cls-12" d="M900.83,1327.07c-202.1-20.7-409.53-126.63-400.68-199.62,5.74-47.34,85.75-57.86,84.45-112.61C583.07,950.18,470,904.67,415.7,891H362.21c-8,15.34,53.49,47.51,47.86,81.64-3.89,23.52-37,31.71-76,50.67-12.82,6.22-128.87,63.51-140.76,115.42C174,1222.83,371.92,1368,621.2,1434.29c92.16,24.51,196.68,43.24,279.63,55.16Z"/></g></g></g></svg>